<?xml version="1.0" encoding="UTF-8"?>
<svg version="1.1" xmlns="http://www.w3.org/2000/svg" width="724" height="662">
<path d="M0 0 C2.97261437 1.56188213 5.15797902 3.18339174 7 6 C8.86830874 13.08292225 9.6038725 20.04782833 10.10546875 27.34375 C10.18935349 28.55325317 10.27323822 29.76275635 10.35966492 31.00891113 C11.30813345 46.04596418 11.35358896 61.0892958 11.31785583 76.15135193 C11.31241716 78.5363277 11.310049 80.92129355 11.3079834 83.30627441 C11.2773635 105.98848578 10.90250991 128.47333218 8 151 C7.85014648 152.22686523 7.70029297 153.45373047 7.54589844 154.71777344 C6.53909144 162.84277004 5.34904375 170.92504401 4 179 C3.82243164 180.06798828 3.64486328 181.13597656 3.46191406 182.23632812 C-2.02537855 214.45583235 -10.70292574 246.5179552 -25 276 C-25.37350586 276.7729541 -25.74701172 277.5459082 -26.13183594 278.34228516 C-39.79151996 306.2473932 -59.56165593 333.23733431 -89.8828125 344.03515625 C-109.33418904 350.05582042 -128.70581837 346.84141151 -146.61328125 337.66015625 C-173.75929401 322.41954878 -186.90535734 292.30020647 -195.02539062 263.69775391 C-199.3391087 247.33112715 -202.48337107 230.54130741 -205 213.8125 C-205.12479736 213.00071289 -205.24959473 212.18892578 -205.37817383 211.35253906 C-206.0192783 206.64672094 -205.96743087 202.6618075 -205 198 C-204 197 -204 197 -201.625 196.6875 C-199 197 -199 197 -197.49853516 198.546875 C-195.55998421 201.72031259 -194.49367816 205.03554583 -193.3984375 208.5625 C-192.90840093 210.08778854 -192.41790476 211.61292948 -191.92700195 213.13793945 C-191.67391266 213.93253571 -191.42082336 214.72713196 -191.1600647 215.54580688 C-178.07590426 256.70535503 -178.07590426 256.70535503 -149.375 287.75 C-143.92350306 289.76907294 -138.26238992 290.07460479 -132.6875 288.23828125 C-120.37597378 282.33900827 -114.19517555 270.55912492 -109.69970703 258.12011719 C-97.46891596 221.06073489 -99.21598258 179.44187749 -100.8125 140.9375 C-100.85468658 139.8853833 -100.89687317 138.8332666 -100.94033813 137.74926758 C-101.62829663 120.76202159 -102.67613598 103.82219769 -104.12231445 86.88256836 C-105.80167739 66.83247025 -105.80167739 66.83247025 -101.44921875 61.2890625 C-97.97571511 57.6989152 -94.02077212 55.02933499 -89.8125 52.375 C-88.20233061 51.33065086 -86.59298186 50.28503557 -84.984375 49.23828125 C-83.7478418 48.43898193 -83.7478418 48.43898193 -82.48632812 47.62353516 C-78.4682714 44.99980409 -74.51591646 42.28226691 -70.5625 39.5625 C-68.96617226 38.46740939 -67.369818 37.37235744 -65.7734375 36.27734375 C-64.98291992 35.7344873 -64.19240234 35.19163086 -63.37792969 34.63232422 C-57.11274457 30.33160269 -50.83863772 26.04388903 -44.56542969 21.75488281 C-42.76093901 20.52052052 -40.95694742 19.28542847 -39.15332031 18.04980469 C-36.20739573 16.03171505 -33.26004825 14.01571719 -30.3125 12 C-29.40395264 11.37689941 -28.49540527 10.75379883 -27.55932617 10.11181641 C-9.20628564 -2.42752805 -9.20628564 -2.42752805 0 0 Z " fill="#1070B8" transform="translate(446,304)"/>
<path d="M0 0 C3.67097054 3.00135431 6.97996442 6.28766941 10.26367188 9.70410156 C11.00101563 10.4453125 11.73835937 11.18652344 12.49804688 11.95019531 C36.94908099 37.77541545 44.03395463 77.4649596 49.63867188 111.14160156 C49.8064917 112.12878174 49.97431152 113.11596191 50.1472168 114.13305664 C51.21257132 120.91441474 51.98078627 127.84712865 51.26367188 134.70410156 C50.60367188 135.36410156 49.94367188 136.02410156 49.26367188 136.70410156 C46.82617188 136.70410156 46.82617188 136.70410156 44.26367188 135.70410156 C41.84771923 131.51775131 40.3370863 127.19748858 38.88085938 122.60253906 C38.43659164 121.22057929 37.99166052 119.83883263 37.54614258 118.45727539 C37.31673981 117.74197662 37.08733704 117.02667786 36.85098267 116.28970337 C32.46941615 102.69184836 27.76749611 89.45855237 21.26367188 76.70410156 C20.93302734 76.04974121 20.60238281 75.39538086 20.26171875 74.72119141 C14.11079998 62.75257959 6.22513734 49.9800827 -6.73632812 44.70410156 C-13.13548658 42.82326783 -18.87394427 43.57552297 -24.73632812 46.70410156 C-39.07525325 56.10704156 -44.9037894 74.30922035 -48.29833984 90.36181641 C-57.64530286 138.07622589 -54.44945636 188.53138994 -50.61132812 236.70410156 C-50.01388541 244.30644433 -49.49358707 251.89016446 -49.36132812 259.51660156 C-49.33538574 260.27005859 -49.30944336 261.02351563 -49.28271484 261.79980469 C-49.26491066 266.932157 -50.44334605 269.80214335 -53.73632812 273.70410156 C-55.97851562 275.51269531 -55.97851562 275.51269531 -58.61132812 277.14160156 C-60.19880859 278.15480469 -60.19880859 278.15480469 -61.81835938 279.18847656 C-62.42760254 279.57583984 -63.0368457 279.96320313 -63.66455078 280.36230469 C-67.92983278 283.12473573 -72.10605174 286.02087505 -76.29882812 288.89160156 C-78.22324668 290.20549242 -80.14772615 291.51929408 -82.07226562 292.83300781 C-91.92477262 299.56549862 -101.7761074 306.29972304 -111.61523438 313.05175781 C-119.15263525 318.22159354 -126.69852102 323.37702965 -134.29882812 328.45410156 C-134.9243457 328.87264404 -135.54986328 329.29118652 -136.19433594 329.72241211 C-141.9902641 333.57956149 -145.76279118 334.48608036 -152.73632812 333.70410156 C-156.74820963 331.66168916 -159.39212649 329.5257105 -161.73632812 325.70410156 C-162.42724609 322.50561523 -162.42724609 322.50561523 -162.85351562 318.68457031 C-162.93165497 317.98639694 -163.00979431 317.28822357 -163.09030151 316.56889343 C-164.02479402 307.74172118 -164.46022594 298.88112512 -164.86132812 290.01660156 C-164.90302124 289.11959534 -164.94471436 288.22258911 -164.9876709 287.29840088 C-168.53344119 210.04882016 -163.01945713 124.9093229 -127.73632812 54.70410156 C-127.39504883 54.01735352 -127.05376953 53.33060547 -126.70214844 52.62304688 C-120.38690571 40.02277789 -112.82193801 28.48892857 -103.73632812 17.70410156 C-102.723125 16.47046875 -102.723125 16.47046875 -101.68945312 15.21191406 C-76.47004917 -14.33344605 -32.56575252 -24.30526074 0 0 Z " fill="#71AABF" transform="translate(394.736328125,18.2958984375)"/>
<path d="M0 0 C6.53427524 -0.11283267 13.06721025 -0.13926698 19.60235596 -0.13189697 C20.60965759 -0.13129272 21.61695923 -0.13068848 22.65478516 -0.13006592 C93.023585 -0.01693502 188.98018133 1.06029685 242.52032471 53.35638428 C258.08706916 69.24504072 265.832184 88.6310949 265.64019775 110.84637451 C264.68594269 141.19589177 245.79960052 165.45652185 224.53985596 185.49310303 C194.17165648 213.06259629 140.06544493 252.27041773 97.60235596 253.36810303 C96.65231689 253.40548584 95.70227783 253.44286865 94.72344971 253.48138428 C92.16485596 253.05560303 92.16485596 253.05560303 90.5090332 251.31700134 C88.94080743 248.67867137 88.87596397 247.4756518 89.09942627 244.44744873 C89.15556091 243.50395065 89.21169556 242.56045258 89.26953125 241.58836365 C89.34326965 240.54243546 89.41700806 239.49650726 89.49298096 238.41888428 C90.09050402 227.47023082 90.22029046 216.59069167 90.11247253 205.62997055 C90.08663596 202.96376863 90.06639586 200.29757868 90.04779053 197.63131714 C89.99516328 190.2911598 89.93947917 182.95123761 89.84259033 175.61151123 C89.78326712 171.05577262 89.74827346 166.50040856 89.72940826 161.94433022 C89.71770818 160.2262752 89.6969622 158.50825582 89.66677094 156.79042625 C89.62580555 154.40853523 89.61588475 152.02837757 89.61309814 149.6461792 C89.59355072 148.94759293 89.5740033 148.24900665 89.55386353 147.5292511 C89.585528 143.73262761 90.06465216 142.17870389 92.49182129 139.19691467 C95.55986888 136.73916651 98.74230526 135.05934161 102.28985596 133.43060303 C121.81120609 124.02770888 144.13956864 112.9942696 153.16485596 92.05560303 C155.44061577 85.22832359 155.29639758 76.67749869 152.41485596 70.05560303 C151.69714387 68.70461556 150.94991758 67.36859808 150.16485596 66.05560303 C149.60798096 65.06560303 149.05110596 64.07560303 148.47735596 63.05560303 C123.98171373 31.27747256 74.40481222 22.44874799 36.96661377 17.48919678 C19.20815593 15.20983314 1.41772165 13.58353948 -16.46697998 12.73846436 C-17.67386475 12.67554199 -18.88074951 12.61261963 -20.12420654 12.54779053 C-21.71289551 12.47600586 -21.71289551 12.47600586 -23.3336792 12.402771 C-25.83514404 12.05560303 -25.83514404 12.05560303 -27.83514404 10.05560303 C-28.39442064 4.79840303 -28.39442064 4.79840303 -26.58540344 2.39576721 C-24.42240912 0.73957412 -23.22364293 0.63905977 -20.51849365 0.55047607 C-19.65148331 0.51589798 -18.78447296 0.48131989 -17.89118958 0.44569397 C-16.95359299 0.42395615 -16.0159964 0.40221832 -15.04998779 0.37982178 C-14.07021469 0.34700607 -13.09044159 0.31419037 -12.08097839 0.28038025 C-8.05446807 0.15610784 -4.02760309 0.07898961 0 0 Z " fill="#F16433" transform="translate(415.83514404296875,200.94439697265625)"/>
<path d="M0 0 C3.6629854 4.36740567 2.64283475 10.77048556 2.18261719 16.12841797 C1.52827298 24.82607393 1.56562327 33.47054529 1.67209625 42.18744278 C1.71497047 45.91179149 1.73777651 49.63619231 1.76212692 53.36070061 C1.80752278 60.25663732 1.86147368 67.15228873 1.94726562 74.04785156 C2.00666698 78.88383986 2.04161755 83.71947285 2.06044769 88.55578232 C2.07215991 90.3874399 2.09292535 92.21906369 2.12308502 94.05051041 C2.16414005 96.60328955 2.1739764 99.15445172 2.17675781 101.70751953 C2.19630524 102.45562393 2.21585266 103.20372833 2.23599243 103.97450256 C2.19126671 109.74490942 0.56483151 112.03443197 -3.375 115.9375 C-5.44873047 117.30200195 -5.44873047 117.30200195 -7.4921875 118.17578125 C-8.25644043 118.51601318 -9.02069336 118.85624512 -9.80810547 119.20678711 C-10.61393066 119.55104736 -11.41975586 119.89530762 -12.25 120.25 C-30.5917827 128.5349168 -53.60307837 140.11909986 -61.375 159.9375 C-64.22225528 167.58176146 -63.78535681 175.03172674 -60.6875 182.5625 C-50.68285445 202.85662088 -29.60304639 212.5358447 -9.375 219.9375 C-8.60075684 220.22334961 -7.82651367 220.50919922 -7.02880859 220.80371094 C28.10334831 233.50310435 66.28278893 237.8303144 103.41967773 239.16723633 C104.13298752 239.19779114 104.8462973 239.22834595 105.58122253 239.25982666 C107.50980539 239.34207704 109.4389857 239.40996518 111.36816406 239.47680664 C114.82646851 239.96599858 116.79940232 240.93397339 119.625 242.9375 C119.295 245.2475 118.965 247.5575 118.625 249.9375 C113.57683338 251.58144135 109.32540102 252.18980077 103.96264648 252.19628906 C103.22952744 252.1997937 102.49640839 252.20329834 101.74107361 252.20690918 C99.32598247 252.21567688 96.91118774 252.20988088 94.49609375 252.203125 C92.78434698 252.20447636 91.07260058 252.20642079 89.3608551 252.20892334 C85.76226163 252.21187072 82.16376744 252.20760158 78.56518555 252.19824219 C74.04840031 252.18704346 69.53185575 252.19347802 65.0150795 252.20511913 C38.04255426 252.26416965 11.30253469 251.41798063 -15.5 248.125 C-16.19492554 248.04068726 -16.88985107 247.95637451 -17.60583496 247.86950684 C-65.27496682 242.04926696 -123.53750647 231.8615904 -156.6484375 193.2890625 C-171.28788937 174.16242232 -175.96639711 153.32102513 -173.09375 129.61669922 C-170.49721117 114.30670959 -162.27521864 99.66413828 -152.375 87.9375 C-151.68921875 87.12410156 -151.0034375 86.31070313 -150.296875 85.47265625 C-148.04630557 82.9011723 -145.73142637 80.41246611 -143.375 77.9375 C-142.86839844 77.40366699 -142.36179687 76.86983398 -141.83984375 76.31982422 C-134.11873603 68.23593396 -126.11044868 60.92888516 -117.14160156 54.25537109 C-115.38146747 52.94232468 -113.63946545 51.6077695 -111.8984375 50.26953125 C-84.44364661 29.39012686 -53.18658585 13.59233417 -20.625 2.4375 C-19.61219971 2.0863916 -18.59939941 1.7352832 -17.5559082 1.37353516 C-5.71313141 -2.55587458 -5.71313141 -2.55587458 0 0 Z " fill="#D33F26" transform="translate(179.375,202.0625)"/>
</svg>
